<svg xmlns="http://www.w3.org/2000/svg" viewBox="0 0 1000 64" width="100%" role="img" aria-label="Skills: causal inference, A/B testing, NLP, LLMs, vector databases, clustering, Python, SQL and more">
<defs>
  <linearGradient id="fade" x1="0" x2="1"><stop offset="0" stop-color="#fff" stop-opacity="0"/><stop offset="0.08" stop-color="#fff"/><stop offset="0.92" stop-color="#fff"/><stop offset="1" stop-color="#fff" stop-opacity="0"/></linearGradient>
  <mask id="m"><rect width="1000" height="64" fill="url(#fade)"/></mask>
</defs>
<g mask="url(#m)"><g>
<animateTransform attributeName="transform" type="translate" from="0 0" to="-2239.6 0" dur="60s" repeatCount="indefinite"/>
<g><g transform="translate(0.0,10)"><rect width="129.6" height="44" rx="22" fill="#12102A"/><rect width="129.6" height="44" rx="22" fill="#2DD4BF" fill-opacity="0.16" stroke="#2DD4BF" stroke-opacity="0.85" stroke-width="1.5"/><circle cx="24" cy="22" r="5" fill="#2DD4BF"/><text x="40" y="29" font-family="'Avenir Next','Segoe UI','Helvetica Neue',Helvetica,Arial,sans-serif" font-size="20" font-weight="600" fill="#E8E6FF">Python</text></g><g transform="translate(143.6,10)"><rect width="94.8" height="44" rx="22" fill="#12102A"/><rect width="94.8" height="44" rx="22" fill="#F0468E" fill-opacity="0.16" stroke="#F0468E" stroke-opacity="0.85" stroke-width="1.5"/><circle cx="24" cy="22" r="5" fill="#F0468E"/><text x="40" y="29" font-family="'Avenir Next','Segoe UI','Helvetica Neue',Helvetica,Arial,sans-serif" font-size="20" font-weight="600" fill="#E8E6FF">SQL</text></g><g transform="translate(252.4,10)"><rect width="141.2" height="44" rx="22" fill="#12102A"/><rect width="141.2" height="44" rx="22" fill="#FFB547" fill-opacity="0.16" stroke="#FFB547" stroke-opacity="0.85" stroke-width="1.5"/><circle cx="24" cy="22" r="5" fill="#FFB547"/><text x="40" y="29" font-family="'Avenir Next','Segoe UI','Helvetica Neue',Helvetica,Arial,sans-serif" font-size="20" font-weight="600" fill="#E8E6FF">PyTorch</text></g><g transform="translate(407.6,10)"><rect width="176.0" height="44" rx="22" fill="#12102A"/><rect width="176.0" height="44" rx="22" fill="#A594FF" fill-opacity="0.16" stroke="#A594FF" stroke-opacity="0.85" stroke-width="1.5"/><circle cx="24" cy="22" r="5" fill="#A594FF"/><text x="40" y="29" font-family="'Avenir Next','Segoe UI','Helvetica Neue',Helvetica,Arial,sans-serif" font-size="20" font-weight="600" fill="#E8E6FF">TensorFlow</text></g><g transform="translate(597.6,10)"><rect width="141.2" height="44" rx="22" fill="#12102A"/><rect width="141.2" height="44" rx="22" fill="#2DD4BF" fill-opacity="0.16" stroke="#2DD4BF" stroke-opacity="0.85" stroke-width="1.5"/><circle cx="24" cy="22" r="5" fill="#2DD4BF"/><text x="40" y="29" font-family="'Avenir Next','Segoe UI','Helvetica Neue',Helvetica,Arial,sans-serif" font-size="20" font-weight="600" fill="#E8E6FF">XGBoost</text></g><g transform="translate(752.8,10)"><rect width="152.8" height="44" rx="22" fill="#12102A"/><rect width="152.8" height="44" rx="22" fill="#F0468E" fill-opacity="0.16" stroke="#F0468E" stroke-opacity="0.85" stroke-width="1.5"/><circle cx="24" cy="22" r="5" fill="#F0468E"/><text x="40" y="29" font-family="'Avenir Next','Segoe UI','Helvetica Neue',Helvetica,Arial,sans-serif" font-size="20" font-weight="600" fill="#E8E6FF">LightGBM</text></g><g transform="translate(919.6,10)"><rect width="141.2" height="44" rx="22" fill="#12102A"/><rect width="141.2" height="44" rx="22" fill="#FFB547" fill-opacity="0.16" stroke="#FFB547" stroke-opacity="0.85" stroke-width="1.5"/><circle cx="24" cy="22" r="5" fill="#FFB547"/><text x="40" y="29" font-family="'Avenir Next','Segoe UI','Helvetica Neue',Helvetica,Arial,sans-serif" font-size="20" font-weight="600" fill="#E8E6FF">FastAPI</text></g><g transform="translate(1074.8,10)"><rect width="129.6" height="44" rx="22" fill="#12102A"/><rect width="129.6" height="44" rx="22" fill="#A594FF" fill-opacity="0.16" stroke="#A594FF" stroke-opacity="0.85" stroke-width="1.5"/><circle cx="24" cy="22" r="5" fill="#A594FF"/><text x="40" y="29" font-family="'Avenir Next','Segoe UI','Helvetica Neue',Helvetica,Arial,sans-serif" font-size="20" font-weight="600" fill="#E8E6FF">Docker</text></g><g transform="translate(1218.4,10)"><rect width="118.0" height="44" rx="22" fill="#12102A"/><rect width="118.0" height="44" rx="22" fill="#2DD4BF" fill-opacity="0.16" stroke="#2DD4BF" stroke-opacity="0.85" stroke-width="1.5"/><circle cx="24" cy="22" r="5" fill="#2DD4BF"/><text x="40" y="29" font-family="'Avenir Next','Segoe UI','Helvetica Neue',Helvetica,Arial,sans-serif" font-size="20" font-weight="600" fill="#E8E6FF">Spark</text></g><g transform="translate(1350.4,10)"><rect width="176.0" height="44" rx="22" fill="#12102A"/><rect width="176.0" height="44" rx="22" fill="#F0468E" fill-opacity="0.16" stroke="#F0468E" stroke-opacity="0.85" stroke-width="1.5"/><circle cx="24" cy="22" r="5" fill="#F0468E"/><text x="40" y="29" font-family="'Avenir Next','Segoe UI','Helvetica Neue',Helvetica,Arial,sans-serif" font-size="20" font-weight="600" fill="#E8E6FF">Databricks</text></g><g transform="translate(1540.4,10)"><rect width="94.8" height="44" rx="22" fill="#12102A"/><rect width="94.8" height="44" rx="22" fill="#FFB547" fill-opacity="0.16" stroke="#FFB547" stroke-opacity="0.85" stroke-width="1.5"/><circle cx="24" cy="22" r="5" fill="#FFB547"/><text x="40" y="29" font-family="'Avenir Next','Segoe UI','Helvetica Neue',Helvetica,Arial,sans-serif" font-size="20" font-weight="600" fill="#E8E6FF">AWS</text></g><g transform="translate(1649.2,10)"><rect width="94.8" height="44" rx="22" fill="#12102A"/><rect width="94.8" height="44" rx="22" fill="#A594FF" fill-opacity="0.16" stroke="#A594FF" stroke-opacity="0.85" stroke-width="1.5"/><circle cx="24" cy="22" r="5" fill="#A594FF"/><text x="40" y="29" font-family="'Avenir Next','Segoe UI','Helvetica Neue',Helvetica,Arial,sans-serif" font-size="20" font-weight="600" fill="#E8E6FF">GCP</text></g><g transform="translate(1758.0,10)"><rect width="118.0" height="44" rx="22" fill="#12102A"/><rect width="118.0" height="44" rx="22" fill="#2DD4BF" fill-opacity="0.16" stroke="#2DD4BF" stroke-opacity="0.85" stroke-width="1.5"/><circle cx="24" cy="22" r="5" fill="#2DD4BF"/><text x="40" y="29" font-family="'Avenir Next','Segoe UI','Helvetica Neue',Helvetica,Arial,sans-serif" font-size="20" font-weight="600" fill="#E8E6FF">Azure</text></g><g transform="translate(1890.0,10)"><rect width="94.8" height="44" rx="22" fill="#12102A"/><rect width="94.8" height="44" rx="22" fill="#F0468E" fill-opacity="0.16" stroke="#F0468E" stroke-opacity="0.85" stroke-width="1.5"/><circle cx="24" cy="22" r="5" fill="#F0468E"/><text x="40" y="29" font-family="'Avenir Next','Segoe UI','Helvetica Neue',Helvetica,Arial,sans-serif" font-size="20" font-weight="600" fill="#E8E6FF">NLP</text></g><g transform="translate(1998.8,10)"><rect width="106.4" height="44" rx="22" fill="#12102A"/><rect width="106.4" height="44" rx="22" fill="#FFB547" fill-opacity="0.16" stroke="#FFB547" stroke-opacity="0.85" stroke-width="1.5"/><circle cx="24" cy="22" r="5" fill="#FFB547"/><text x="40" y="29" font-family="'Avenir Next','Segoe UI','Helvetica Neue',Helvetica,Arial,sans-serif" font-size="20" font-weight="600" fill="#E8E6FF">LLMs</text></g><g transform="translate(2119.2,10)"><rect width="106.4" height="44" rx="22" fill="#12102A"/><rect width="106.4" height="44" rx="22" fill="#A594FF" fill-opacity="0.16" stroke="#A594FF" stroke-opacity="0.85" stroke-width="1.5"/><circle cx="24" cy="22" r="5" fill="#A594FF"/><text x="40" y="29" font-family="'Avenir Next','Segoe UI','Helvetica Neue',Helvetica,Arial,sans-serif" font-size="20" font-weight="600" fill="#E8E6FF">SHAP</text></g></g><g transform="translate(2239.6,0)"><g transform="translate(0.0,10)"><rect width="129.6" height="44" rx="22" fill="#12102A"/><rect width="129.6" height="44" rx="22" fill="#2DD4BF" fill-opacity="0.16" stroke="#2DD4BF" stroke-opacity="0.85" stroke-width="1.5"/><circle cx="24" cy="22" r="5" fill="#2DD4BF"/><text x="40" y="29" font-family="'Avenir Next','Segoe UI','Helvetica Neue',Helvetica,Arial,sans-serif" font-size="20" font-weight="600" fill="#E8E6FF">Python</text></g><g transform="translate(143.6,10)"><rect width="94.8" height="44" rx="22" fill="#12102A"/><rect width="94.8" height="44" rx="22" fill="#F0468E" fill-opacity="0.16" stroke="#F0468E" stroke-opacity="0.85" stroke-width="1.5"/><circle cx="24" cy="22" r="5" fill="#F0468E"/><text x="40" y="29" font-family="'Avenir Next','Segoe UI','Helvetica Neue',Helvetica,Arial,sans-serif" font-size="20" font-weight="600" fill="#E8E6FF">SQL</text></g><g transform="translate(252.4,10)"><rect width="141.2" height="44" rx="22" fill="#12102A"/><rect width="141.2" height="44" rx="22" fill="#FFB547" fill-opacity="0.16" stroke="#FFB547" stroke-opacity="0.85" stroke-width="1.5"/><circle cx="24" cy="22" r="5" fill="#FFB547"/><text x="40" y="29" font-family="'Avenir Next','Segoe UI','Helvetica Neue',Helvetica,Arial,sans-serif" font-size="20" font-weight="600" fill="#E8E6FF">PyTorch</text></g><g transform="translate(407.6,10)"><rect width="176.0" height="44" rx="22" fill="#12102A"/><rect width="176.0" height="44" rx="22" fill="#A594FF" fill-opacity="0.16" stroke="#A594FF" stroke-opacity="0.85" stroke-width="1.5"/><circle cx="24" cy="22" r="5" fill="#A594FF"/><text x="40" y="29" font-family="'Avenir Next','Segoe UI','Helvetica Neue',Helvetica,Arial,sans-serif" font-size="20" font-weight="600" fill="#E8E6FF">TensorFlow</text></g><g transform="translate(597.6,10)"><rect width="141.2" height="44" rx="22" fill="#12102A"/><rect width="141.2" height="44" rx="22" fill="#2DD4BF" fill-opacity="0.16" stroke="#2DD4BF" stroke-opacity="0.85" stroke-width="1.5"/><circle cx="24" cy="22" r="5" fill="#2DD4BF"/><text x="40" y="29" font-family="'Avenir Next','Segoe UI','Helvetica Neue',Helvetica,Arial,sans-serif" font-size="20" font-weight="600" fill="#E8E6FF">XGBoost</text></g><g transform="translate(752.8,10)"><rect width="152.8" height="44" rx="22" fill="#12102A"/><rect width="152.8" height="44" rx="22" fill="#F0468E" fill-opacity="0.16" stroke="#F0468E" stroke-opacity="0.85" stroke-width="1.5"/><circle cx="24" cy="22" r="5" fill="#F0468E"/><text x="40" y="29" font-family="'Avenir Next','Segoe UI','Helvetica Neue',Helvetica,Arial,sans-serif" font-size="20" font-weight="600" fill="#E8E6FF">LightGBM</text></g><g transform="translate(919.6,10)"><rect width="141.2" height="44" rx="22" fill="#12102A"/><rect width="141.2" height="44" rx="22" fill="#FFB547" fill-opacity="0.16" stroke="#FFB547" stroke-opacity="0.85" stroke-width="1.5"/><circle cx="24" cy="22" r="5" fill="#FFB547"/><text x="40" y="29" font-family="'Avenir Next','Segoe UI','Helvetica Neue',Helvetica,Arial,sans-serif" font-size="20" font-weight="600" fill="#E8E6FF">FastAPI</text></g><g transform="translate(1074.8,10)"><rect width="129.6" height="44" rx="22" fill="#12102A"/><rect width="129.6" height="44" rx="22" fill="#A594FF" fill-opacity="0.16" stroke="#A594FF" stroke-opacity="0.85" stroke-width="1.5"/><circle cx="24" cy="22" r="5" fill="#A594FF"/><text x="40" y="29" font-family="'Avenir Next','Segoe UI','Helvetica Neue',Helvetica,Arial,sans-serif" font-size="20" font-weight="600" fill="#E8E6FF">Docker</text></g><g transform="translate(1218.4,10)"><rect width="118.0" height="44" rx="22" fill="#12102A"/><rect width="118.0" height="44" rx="22" fill="#2DD4BF" fill-opacity="0.16" stroke="#2DD4BF" stroke-opacity="0.85" stroke-width="1.5"/><circle cx="24" cy="22" r="5" fill="#2DD4BF"/><text x="40" y="29" font-family="'Avenir Next','Segoe UI','Helvetica Neue',Helvetica,Arial,sans-serif" font-size="20" font-weight="600" fill="#E8E6FF">Spark</text></g><g transform="translate(1350.4,10)"><rect width="176.0" height="44" rx="22" fill="#12102A"/><rect width="176.0" height="44" rx="22" fill="#F0468E" fill-opacity="0.16" stroke="#F0468E" stroke-opacity="0.85" stroke-width="1.5"/><circle cx="24" cy="22" r="5" fill="#F0468E"/><text x="40" y="29" font-family="'Avenir Next','Segoe UI','Helvetica Neue',Helvetica,Arial,sans-serif" font-size="20" font-weight="600" fill="#E8E6FF">Databricks</text></g><g transform="translate(1540.4,10)"><rect width="94.8" height="44" rx="22" fill="#12102A"/><rect width="94.8" height="44" rx="22" fill="#FFB547" fill-opacity="0.16" stroke="#FFB547" stroke-opacity="0.85" stroke-width="1.5"/><circle cx="24" cy="22" r="5" fill="#FFB547"/><text x="40" y="29" font-family="'Avenir Next','Segoe UI','Helvetica Neue',Helvetica,Arial,sans-serif" font-size="20" font-weight="600" fill="#E8E6FF">AWS</text></g><g transform="translate(1649.2,10)"><rect width="94.8" height="44" rx="22" fill="#12102A"/><rect width="94.8" height="44" rx="22" fill="#A594FF" fill-opacity="0.16" stroke="#A594FF" stroke-opacity="0.85" stroke-width="1.5"/><circle cx="24" cy="22" r="5" fill="#A594FF"/><text x="40" y="29" font-family="'Avenir Next','Segoe UI','Helvetica Neue',Helvetica,Arial,sans-serif" font-size="20" font-weight="600" fill="#E8E6FF">GCP</text></g><g transform="translate(1758.0,10)"><rect width="118.0" height="44" rx="22" fill="#12102A"/><rect width="118.0" height="44" rx="22" fill="#2DD4BF" fill-opacity="0.16" stroke="#2DD4BF" stroke-opacity="0.85" stroke-width="1.5"/><circle cx="24" cy="22" r="5" fill="#2DD4BF"/><text x="40" y="29" font-family="'Avenir Next','Segoe UI','Helvetica Neue',Helvetica,Arial,sans-serif" font-size="20" font-weight="600" fill="#E8E6FF">Azure</text></g><g transform="translate(1890.0,10)"><rect width="94.8" height="44" rx="22" fill="#12102A"/><rect width="94.8" height="44" rx="22" fill="#F0468E" fill-opacity="0.16" stroke="#F0468E" stroke-opacity="0.85" stroke-width="1.5"/><circle cx="24" cy="22" r="5" fill="#F0468E"/><text x="40" y="29" font-family="'Avenir Next','Segoe UI','Helvetica Neue',Helvetica,Arial,sans-serif" font-size="20" font-weight="600" fill="#E8E6FF">NLP</text></g><g transform="translate(1998.8,10)"><rect width="106.4" height="44" rx="22" fill="#12102A"/><rect width="106.4" height="44" rx="22" fill="#FFB547" fill-opacity="0.16" stroke="#FFB547" stroke-opacity="0.85" stroke-width="1.5"/><circle cx="24" cy="22" r="5" fill="#FFB547"/><text x="40" y="29" font-family="'Avenir Next','Segoe UI','Helvetica Neue',Helvetica,Arial,sans-serif" font-size="20" font-weight="600" fill="#E8E6FF">LLMs</text></g><g transform="translate(2119.2,10)"><rect width="106.4" height="44" rx="22" fill="#12102A"/><rect width="106.4" height="44" rx="22" fill="#A594FF" fill-opacity="0.16" stroke="#A594FF" stroke-opacity="0.85" stroke-width="1.5"/><circle cx="24" cy="22" r="5" fill="#A594FF"/><text x="40" y="29" font-family="'Avenir Next','Segoe UI','Helvetica Neue',Helvetica,Arial,sans-serif" font-size="20" font-weight="600" fill="#E8E6FF">SHAP</text></g></g><g transform="translate(4479.2,0)"><g transform="translate(0.0,10)"><rect width="129.6" height="44" rx="22" fill="#12102A"/><rect width="129.6" height="44" rx="22" fill="#2DD4BF" fill-opacity="0.16" stroke="#2DD4BF" stroke-opacity="0.85" stroke-width="1.5"/><circle cx="24" cy="22" r="5" fill="#2DD4BF"/><text x="40" y="29" font-family="'Avenir Next','Segoe UI','Helvetica Neue',Helvetica,Arial,sans-serif" font-size="20" font-weight="600" fill="#E8E6FF">Python</text></g><g transform="translate(143.6,10)"><rect width="94.8" height="44" rx="22" fill="#12102A"/><rect width="94.8" height="44" rx="22" fill="#F0468E" fill-opacity="0.16" stroke="#F0468E" stroke-opacity="0.85" stroke-width="1.5"/><circle cx="24" cy="22" r="5" fill="#F0468E"/><text x="40" y="29" font-family="'Avenir Next','Segoe UI','Helvetica Neue',Helvetica,Arial,sans-serif" font-size="20" font-weight="600" fill="#E8E6FF">SQL</text></g><g transform="translate(252.4,10)"><rect width="141.2" height="44" rx="22" fill="#12102A"/><rect width="141.2" height="44" rx="22" fill="#FFB547" fill-opacity="0.16" stroke="#FFB547" stroke-opacity="0.85" stroke-width="1.5"/><circle cx="24" cy="22" r="5" fill="#FFB547"/><text x="40" y="29" font-family="'Avenir Next','Segoe UI','Helvetica Neue',Helvetica,Arial,sans-serif" font-size="20" font-weight="600" fill="#E8E6FF">PyTorch</text></g><g transform="translate(407.6,10)"><rect width="176.0" height="44" rx="22" fill="#12102A"/><rect width="176.0" height="44" rx="22" fill="#A594FF" fill-opacity="0.16" stroke="#A594FF" stroke-opacity="0.85" stroke-width="1.5"/><circle cx="24" cy="22" r="5" fill="#A594FF"/><text x="40" y="29" font-family="'Avenir Next','Segoe UI','Helvetica Neue',Helvetica,Arial,sans-serif" font-size="20" font-weight="600" fill="#E8E6FF">TensorFlow</text></g><g transform="translate(597.6,10)"><rect width="141.2" height="44" rx="22" fill="#12102A"/><rect width="141.2" height="44" rx="22" fill="#2DD4BF" fill-opacity="0.16" stroke="#2DD4BF" stroke-opacity="0.85" stroke-width="1.5"/><circle cx="24" cy="22" r="5" fill="#2DD4BF"/><text x="40" y="29" font-family="'Avenir Next','Segoe UI','Helvetica Neue',Helvetica,Arial,sans-serif" font-size="20" font-weight="600" fill="#E8E6FF">XGBoost</text></g><g transform="translate(752.8,10)"><rect width="152.8" height="44" rx="22" fill="#12102A"/><rect width="152.8" height="44" rx="22" fill="#F0468E" fill-opacity="0.16" stroke="#F0468E" stroke-opacity="0.85" stroke-width="1.5"/><circle cx="24" cy="22" r="5" fill="#F0468E"/><text x="40" y="29" font-family="'Avenir Next','Segoe UI','Helvetica Neue',Helvetica,Arial,sans-serif" font-size="20" font-weight="600" fill="#E8E6FF">LightGBM</text></g><g transform="translate(919.6,10)"><rect width="141.2" height="44" rx="22" fill="#12102A"/><rect width="141.2" height="44" rx="22" fill="#FFB547" fill-opacity="0.16" stroke="#FFB547" stroke-opacity="0.85" stroke-width="1.5"/><circle cx="24" cy="22" r="5" fill="#FFB547"/><text x="40" y="29" font-family="'Avenir Next','Segoe UI','Helvetica Neue',Helvetica,Arial,sans-serif" font-size="20" font-weight="600" fill="#E8E6FF">FastAPI</text></g><g transform="translate(1074.8,10)"><rect width="129.6" height="44" rx="22" fill="#12102A"/><rect width="129.6" height="44" rx="22" fill="#A594FF" fill-opacity="0.16" stroke="#A594FF" stroke-opacity="0.85" stroke-width="1.5"/><circle cx="24" cy="22" r="5" fill="#A594FF"/><text x="40" y="29" font-family="'Avenir Next','Segoe UI','Helvetica Neue',Helvetica,Arial,sans-serif" font-size="20" font-weight="600" fill="#E8E6FF">Docker</text></g><g transform="translate(1218.4,10)"><rect width="118.0" height="44" rx="22" fill="#12102A"/><rect width="118.0" height="44" rx="22" fill="#2DD4BF" fill-opacity="0.16" stroke="#2DD4BF" stroke-opacity="0.85" stroke-width="1.5"/><circle cx="24" cy="22" r="5" fill="#2DD4BF"/><text x="40" y="29" font-family="'Avenir Next','Segoe UI','Helvetica Neue',Helvetica,Arial,sans-serif" font-size="20" font-weight="600" fill="#E8E6FF">Spark</text></g><g transform="translate(1350.4,10)"><rect width="176.0" height="44" rx="22" fill="#12102A"/><rect width="176.0" height="44" rx="22" fill="#F0468E" fill-opacity="0.16" stroke="#F0468E" stroke-opacity="0.85" stroke-width="1.5"/><circle cx="24" cy="22" r="5" fill="#F0468E"/><text x="40" y="29" font-family="'Avenir Next','Segoe UI','Helvetica Neue',Helvetica,Arial,sans-serif" font-size="20" font-weight="600" fill="#E8E6FF">Databricks</text></g><g transform="translate(1540.4,10)"><rect width="94.8" height="44" rx="22" fill="#12102A"/><rect width="94.8" height="44" rx="22" fill="#FFB547" fill-opacity="0.16" stroke="#FFB547" stroke-opacity="0.85" stroke-width="1.5"/><circle cx="24" cy="22" r="5" fill="#FFB547"/><text x="40" y="29" font-family="'Avenir Next','Segoe UI','Helvetica Neue',Helvetica,Arial,sans-serif" font-size="20" font-weight="600" fill="#E8E6FF">AWS</text></g><g transform="translate(1649.2,10)"><rect width="94.8" height="44" rx="22" fill="#12102A"/><rect width="94.8" height="44" rx="22" fill="#A594FF" fill-opacity="0.16" stroke="#A594FF" stroke-opacity="0.85" stroke-width="1.5"/><circle cx="24" cy="22" r="5" fill="#A594FF"/><text x="40" y="29" font-family="'Avenir Next','Segoe UI','Helvetica Neue',Helvetica,Arial,sans-serif" font-size="20" font-weight="600" fill="#E8E6FF">GCP</text></g><g transform="translate(1758.0,10)"><rect width="118.0" height="44" rx="22" fill="#12102A"/><rect width="118.0" height="44" rx="22" fill="#2DD4BF" fill-opacity="0.16" stroke="#2DD4BF" stroke-opacity="0.85" stroke-width="1.5"/><circle cx="24" cy="22" r="5" fill="#2DD4BF"/><text x="40" y="29" font-family="'Avenir Next','Segoe UI','Helvetica Neue',Helvetica,Arial,sans-serif" font-size="20" font-weight="600" fill="#E8E6FF">Azure</text></g><g transform="translate(1890.0,10)"><rect width="94.8" height="44" rx="22" fill="#12102A"/><rect width="94.8" height="44" rx="22" fill="#F0468E" fill-opacity="0.16" stroke="#F0468E" stroke-opacity="0.85" stroke-width="1.5"/><circle cx="24" cy="22" r="5" fill="#F0468E"/><text x="40" y="29" font-family="'Avenir Next','Segoe UI','Helvetica Neue',Helvetica,Arial,sans-serif" font-size="20" font-weight="600" fill="#E8E6FF">NLP</text></g><g transform="translate(1998.8,10)"><rect width="106.4" height="44" rx="22" fill="#12102A"/><rect width="106.4" height="44" rx="22" fill="#FFB547" fill-opacity="0.16" stroke="#FFB547" stroke-opacity="0.85" stroke-width="1.5"/><circle cx="24" cy="22" r="5" fill="#FFB547"/><text x="40" y="29" font-family="'Avenir Next','Segoe UI','Helvetica Neue',Helvetica,Arial,sans-serif" font-size="20" font-weight="600" fill="#E8E6FF">LLMs</text></g><g transform="translate(2119.2,10)"><rect width="106.4" height="44" rx="22" fill="#12102A"/><rect width="106.4" height="44" rx="22" fill="#A594FF" fill-opacity="0.16" stroke="#A594FF" stroke-opacity="0.85" stroke-width="1.5"/><circle cx="24" cy="22" r="5" fill="#A594FF"/><text x="40" y="29" font-family="'Avenir Next','Segoe UI','Helvetica Neue',Helvetica,Arial,sans-serif" font-size="20" font-weight="600" fill="#E8E6FF">SHAP</text></g></g>
</g></g>
</svg>